<?xml version="1.0" encoding="UTF-8" standalone="no"?>
<!-- Uploaded to: SVG Repo, www.svgrepo.com, Transformed by: SVG Repo Mixer Tools -->

<svg
   width="800px"
   height="800px"
   viewBox="-7.04 -7.04 78.08 78.08"
   fill="#000000"
   data-darkreader-inline-fill=""
   style="--darkreader-inline-fill: #313233;"
   version="1.1"
   id="svg2"
   sodipodi:docname="owl-trackers-logo.svg"
   inkscape:export-filename="owl-trackers-logo.png"
   inkscape:export-xdpi="96"
   inkscape:export-ydpi="96"
   inkscape:version="1.3 (0e150ed6c4, 2023-07-21)"
   xmlns:inkscape="http://www.inkscape.org/namespaces/inkscape"
   xmlns:sodipodi="http://sodipodi.sourceforge.net/DTD/sodipodi-0.dtd"
   xmlns="http://www.w3.org/2000/svg"
   xmlns:svg="http://www.w3.org/2000/svg">
  <defs
     id="defs2" />
  <sodipodi:namedview
     id="namedview2"
     pagecolor="#505050"
     bordercolor="#eeeeee"
     borderopacity="1"
     inkscape:showpageshadow="0"
     inkscape:pageopacity="0"
     inkscape:pagecheckerboard="0"
     inkscape:deskcolor="#505050"
     inkscape:zoom="0.51839766"
     inkscape:cx="439.8168"
     inkscape:cy="427.27816"
     inkscape:window-width="2560"
     inkscape:window-height="1369"
     inkscape:window-x="-8"
     inkscape:window-y="-8"
     inkscape:window-maximized="1"
     inkscape:current-layer="svg2" />
  <g
     id="SVGRepo_bgCarrier"
     stroke-width="0"
     transform="matrix(1.0425456,0,0,1.0425456,-1.2793584,0.66924865)"
     style="fill:#07ffdf;fill-opacity:1">
    <path
       transform="matrix(2.44,0,0,2.44,-7.04,-7.04)"
       d="m 16,27.396375 c 2.633944,-0.05053 5.412914,1.888322 7.71881,0.614327 2.301771,-1.271716 2.532626,-4.438714 3.573904,-6.853492 1.016536,-2.3574 2.374188,-4.568356 2.457749,-7.134228 0.09381,-2.880588 0.274186,-6.4176849 -1.956997,-8.2420787 C 25.50877,3.912753 22.060222,5.6933689 19.130322,5.3391037 16.825633,5.0604352 14.588633,3.011857 12.454827,3.9262511 10.301497,4.8490122 10.458428,8.1060018 8.803679,9.7643524 6.9461058,11.625969 3.1885559,11.542245 2.3636525,14.039389 1.567692,16.448917 4.1545559,18.62301 5.099319,20.978174 6.1023098,23.478492 5.7669922,26.943716 8.0884723,28.310577 10.423407,29.685361 13.290896,27.44835 16,27.396375"
       fill="#eca57e"
       strokewidth="0"
       id="path1"
       style="fill:#07ffdf;fill-opacity:1" />
  </g>
  <g
     id="SVGRepo_tracerCarrier"
     stroke-linecap="round"
     stroke-linejoin="round" />
  <g
     id="SVGRepo_iconCarrier"
     transform="matrix(1.1396462,0,0,1.1396462,-4.4323912,-7.9012105)">
    <g
       id="a" />
    <g
       id="b" />
    <g
       id="c" />
    <g
       id="d" />
    <g
       id="e" />
    <g
       id="f" />
    <g
       id="g" />
    <g
       id="h" />
    <g
       id="i" />
    <g
       id="j" />
    <g
       id="k" />
    <g
       id="l" />
    <g
       id="m" />
    <g
       id="n" />
    <g
       id="o" />
    <g
       id="p" />
    <g
       id="q" />
    <g
       id="r" />
    <g
       id="s" />
    <g
       id="t" />
    <g
       id="u" />
    <g
       id="v" />
    <g
       id="w" />
    <g
       id="x" />
    <g
       id="y" />
    <g
       id="a`" />
    <g
       id="aa" />
    <g
       id="ab" />
    <g
       id="ac" />
    <g
       id="ad" />
    <g
       id="ae" />
    <g
       id="af" />
    <g
       id="ag" />
    <g
       id="ah" />
    <g
       id="ai">
      <path
         d="m 40.04,27.63 5.72,-0.27 3.62,-6.31 C 49.26,20.73 49.12,20.42 48.96,20.12 L 42.09,7.45 H 21.9 l -6.87,12.67 c -0.16,0.3 -0.3,0.61 -0.42,0.93 l 3.49,6.05 5.85,0.54 h 16.09 z"
         fill="#8598ab"
         id="aj"
         data-darkreader-inline-fill="" />
      <path
         d="m 23.07,48.24 8.04,4.2 c 0.56,0.29 1.23,0.29 1.79,0 l 8.04,-4.2 -0.89,-20.6 -8.04,-6.23 -8.05,6.23 z"
         fill="#d7e5eb"
         id="ak"
         data-darkreader-inline-fill="" />
      <path
         d="m 40.93,48.24 2.47,10.34 c 0.1,0.42 0.63,0.56 0.93,0.25 l 9.99,-10.66 c 0.24,-0.26 0.41,-0.58 0.48,-0.93 L 47.41,33.98 36.87,30.17 c -0.1,0.27 -0.13,0.58 -0.06,0.87 l 4.11,17.19 z"
         fill="#e2eef2"
         id="al"
         data-darkreader-inline-fill="" />
      <path
         d="m 36.86,30.32 15.18,20.29 2.29,-2.44 c 0.24,-0.26 0.41,-0.58 0.48,-0.93 L 49.48,37.67 C 44.32,34.3 38.68,30.79 36.86,30.32 Z"
         fill="#d7e5eb"
         id="am"
         data-darkreader-inline-fill="" />
      <path
         d="m 36.85,30.31 17.96,16.93 c 0.05,-0.26 0.05,-0.53 0,-0.79 L 49.66,21.99 C 49.59,21.67 49.5,21.35 49.39,21.05 l -9.34,6.59 -2.63,1.85 c -0.29,0.21 -0.48,0.5 -0.57,0.82 z"
         fill="#f0f4f6"
         id="an"
         data-darkreader-inline-fill="" />
      <path
         d="m 19.51,5.61 v 0 l 2.39,1.83 z"
         fill="#ffa6c5"
         id="ao"
         data-darkreader-inline-fill="" />
      <path
         d="m 28.77,12.7 -1.97,3.42 c -0.29,0.5 -0.16,1.13 0.29,1.48 l 4.91,3.8 4.91,-3.8 c 0.45,-0.35 0.58,-0.98 0.29,-1.48 L 35.23,12.7 Z"
         fill="#fce87b"
         id="ap"
         data-darkreader-inline-fill="" />
      <path
         d="m 19.72,5 c -0.33,0 -0.47,0.41 -0.21,0.61 l 11.7,8.96 c 0.47,0.36 1.12,0.36 1.59,0 L 44.5,5.61 C 44.76,5.41 44.61,5 44.29,5 Z"
         fill="#9dacb9"
         id="aq"
         data-darkreader-inline-fill="" />
      <path
         d="m 23.08,48.21 -2.47,10.34 c -0.1,0.42 -0.63,0.56 -0.93,0.25 L 9.69,48.14 C 9.45,47.88 9.28,47.56 9.21,47.21 L 16.6,33.95 27.14,30.14 c 0.1,0.27 0.13,0.58 0.06,0.87 L 23.09,48.2 Z"
         fill="#e2eef2"
         id="ar"
         data-darkreader-inline-fill="" />
      <path
         d="M 27.15,30.3 11.97,50.59 9.68,48.15 C 9.44,47.89 9.27,47.57 9.2,47.22 l 5.33,-9.57 c 5.16,-3.37 10.8,-6.88 12.62,-7.35 z"
         fill="#d7e5eb"
         id="as"
         data-darkreader-inline-fill="" />
      <path
         d="M 27.16,30.28 9.2,47.21 c -0.05,-0.26 -0.05,-0.53 0,-0.79 l 5.15,-24.46 c 0.07,-0.32 0.16,-0.64 0.27,-0.94 l 9.34,6.59 2.63,1.85 c 0.29,0.21 0.48,0.5 0.57,0.82 z"
         fill="#f0f4f6"
         id="at"
         data-darkreader-inline-fill="" />
      <path
         d="M 13.36,21.78 8.21,46.24 c -0.2,0.94 0.08,1.92 0.73,2.62 l 9.99,10.66 c 0.28,0.3 0.67,0.47 1.08,0.49 h 0.05 c 0.39,0 0.77,-0.15 1.05,-0.42 0.22,-0.21 0.38,-0.47 0.45,-0.77 l 2.17,-9.09 6.9,3.61 c 0.85,0.44 1.86,0.44 2.72,0 l 6.9,-3.61 2.17,9.09 c 0.2,0.83 1.03,1.34 1.86,1.14 0.29,-0.07 0.56,-0.22 0.77,-0.44 l 9.99,-10.66 c 0.66,-0.7 0.93,-1.68 0.73,-2.62 L 50.62,21.78 C 50.46,21.03 50.2,20.31 49.83,19.63 L 43.37,7.71 45.08,6.4 C 45.67,5.95 45.78,5.11 45.33,4.52 45.08,4.19 44.68,4 44.27,4 H 19.72 c -0.74,0 -1.34,0.6 -1.34,1.34 0,0.42 0.2,0.81 0.53,1.07 l 1.71,1.31 -6.46,11.92 c -0.37,0.67 -0.63,1.4 -0.79,2.15 z M 20.12,4.82 Z m -4.9,17.87 10.62,7.49 -15.21,14.34 4.6,-21.82 z m 4.6,34.83 -9.41,-10.04 v 0 L 25.67,33.09 19.83,57.52 Z m 12.62,-5.97 c -0.27,0.14 -0.59,0.14 -0.86,0 l -7.35,-3.84 3.93,-16.43 c 0.24,-1 -0.15,-2.02 -0.99,-2.61 l -1.52,-1.07 6.36,-4.93 6.36,4.93 -1.52,1.07 c -0.84,0.59 -1.23,1.62 -0.99,2.61 l 3.93,16.43 z M 27.71,16.81 c -0.06,-0.05 -0.08,-0.13 -0.04,-0.2 l 1.4,-2.43 1.52,1.17 c 0.83,0.63 1.99,0.64 2.82,0 l 1.52,-1.17 1.4,2.43 c 0.04,0.07 0.02,0.15 -0.04,0.2 L 32,20.13 Z M 44.19,57.52 38.35,33.09 53.61,47.47 v 0 L 44.2,57.52 Z M 53.39,44.51 38.18,30.17 48.8,22.68 53.4,44.5 Z M 48.14,20.7 40.08,26.38 33.64,21.4 37.52,18.39 c 0.85,-0.66 1.09,-1.85 0.55,-2.78 l -1.53,-2.65 5.24,-4.01 c 6.31,11.64 5.81,10.69 6.35,11.76 z M 42.35,5.99 41.5,6.64 v 0 l -9.3,7.12 c -0.12,0.09 -0.28,0.09 -0.39,0 l -9.3,-7.12 v 0 L 21.66,5.99 Z m -20.12,2.95 5.24,4.01 -1.53,2.65 c -0.54,0.93 -0.3,2.13 0.55,2.78 l 3.88,3.01 -6.44,4.98 -8.06,-5.68 c 0.56,-1.09 0.06,-0.14 6.35,-11.76 z"
         id="path2" />
    </g>
    <g
       id="au" />
    <g
       id="av" />
    <g
       id="aw" />
    <g
       id="ax" />
    <g
       id="ay" />
    <g
       id="b`" />
    <g
       id="ba" />
    <g
       id="bb" />
    <g
       id="bc" />
    <g
       id="bd" />
    <g
       id="be" />
    <g
       id="bf" />
    <g
       id="bg" />
    <g
       id="bh" />
    <g
       id="bi" />
  </g>
</svg>
